<?xml version="1.0" standalone="no"?><!DOCTYPE svg PUBLIC "-//W3C//DTD SVG 1.1//EN" "http://www.w3.org/Graphics/SVG/1.1/DTD/svg11.dtd"><svg class="icon" width="200px" height="200.00px" viewBox="0 0 1024 1024" version="1.1" xmlns="http://www.w3.org/2000/svg"><path fill="#1afa29" d="M763.733333 356.266667c-42.666667-108.8-149.333333-185.6-268.8-185.6-145.066667 0-266.666667 110.933333-285.866666 251.733333-96 21.333333-166.4 106.666667-166.4 209.066667 0 117.333333 96 213.333333 213.333333 213.333333h70.4c17.066667 0 32-14.933333 32-32s-14.933333-32-32-32H256c-83.2 0-149.333333-68.266667-149.333333-149.333333 0-74.666667 55.466667-138.666667 132.266666-149.333334h10.666667c10.666667 0 21.333333-10.666667 21.333333-21.333333v-8.533333c4.266667-119.466667 104.533333-217.6 224-217.6 98.133333 0 187.733333 66.133333 215.466667 160l2.133333 4.266666v2.133334c2.133333 8.533333 10.666667 14.933333 21.333334 14.933333h2.133333c96 0 179.2 76.8 181.333333 172.8 2.133333 100.266667-68.266667 181.333333-164.266666 187.733333h-55.466667c-17.066667 0-32 14.933333-32 32s12.8 29.866667 27.733333 32h55.466667C878.933333 838.4 981.333333 731.733333 981.333333 597.333333c0-125.866667-96-228.266667-217.6-241.066666z"  /><path fill="#1afa29" d="M535.466667 778.666667v-51.2h17.066666v-21.333334h-68.266666v21.333334h17.066666v51.2a38.250667 38.250667 0 0 0 17.066667 72.533333 38.250667 38.250667 0 0 0 17.066667-72.533333zM708.266667 706.133333h21.333333v21.333334h-21.333333zM394.666667 706.133333h21.333333v21.333334h-21.333333zM618.666667 706.133333h21.333333v21.333334h-21.333333zM663.466667 706.133333h21.333333v21.333334h-21.333333zM573.866667 706.133333h21.333333v21.333334h-21.333333zM349.866667 706.133333h21.333333v21.333334h-21.333333zM439.466667 706.133333h21.333333v21.333334h-21.333333zM307.2 706.133333h21.333333v21.333334h-21.333333zM307.2 635.733333h21.333333v17.066667h-21.333333zM307.2 672h21.333333v17.066667h-21.333333zM307.2 597.333333h21.333333v21.333334h-21.333333zM573.866667 597.333333h21.333333v21.333334h-21.333333zM439.466667 597.333333h21.333333v21.333334h-21.333333zM708.266667 597.333333h21.333333v21.333334h-21.333333zM708.266667 672h21.333333v17.066667h-21.333333zM708.266667 635.733333h21.333333v17.066667h-21.333333zM518.4 445.866667a38.250667 38.250667 0 0 0-17.066667 72.533333V597.333333h-17.066666v21.333334h68.266666v-21.333334h-17.066666v-78.933333a38.250667 38.250667 0 0 0-17.066667-72.533333zM420.266667 484.266667c0-21.333333-17.066667-38.4-38.4-38.4a38.250667 38.250667 0 0 0-17.066667 72.533333V597.333333h-14.933333v21.333334h66.133333v-21.333334h-19.2v-78.933333c14.933333-4.266667 23.466667-19.2 23.466667-34.133333zM667.733333 618.666667h17.066667v-21.333334h-17.066667v-78.933333a38.250667 38.250667 0 0 0-17.066666-72.533333 38.250667 38.250667 0 0 0-17.066667 72.533333V597.333333H618.666667v21.333334h49.066666z"  /></svg>